<svg width="11" height="8" viewBox="0 0 11 8" fill="none" xmlns="http://www.w3.org/2000/svg">
<path fill-rule="evenodd" clip-rule="evenodd" d="M1.479 4.00021C1.479 3.88171 1.52608 3.76806 1.60987 3.68427C1.69366 3.60047 1.80731 3.5534 1.92581 3.5534L9.9684 3.5534C10.0869 3.5534 10.2006 3.60047 10.2843 3.68427C10.3681 3.76806 10.4152 3.88171 10.4152 4.00021C10.4152 4.11871 10.3681 4.23236 10.2843 4.31615C10.2006 4.39994 10.0869 4.44702 9.9684 4.44702L1.92581 4.44702C1.80731 4.44702 1.69366 4.39995 1.60987 4.31615C1.52608 4.23236 1.479 4.11871 1.479 4.00021Z" fill="#07484A"/>
<path fill-rule="evenodd" clip-rule="evenodd" d="M0.715739 4.31646C0.674129 4.27496 0.641117 4.22565 0.618592 4.17137C0.596067 4.11708 0.584472 4.05889 0.584472 4.00012C0.584472 3.94135 0.596067 3.88315 0.618592 3.82887C0.641117 3.77459 0.674129 3.72528 0.715739 3.68378L3.3966 1.00291C3.4805 0.919014 3.59429 0.87188 3.71294 0.87188C3.8316 0.87188 3.94539 0.919014 4.02929 1.00291C4.11319 1.08681 4.16032 1.2006 4.16032 1.31926C4.16032 1.43791 4.11319 1.5517 4.02929 1.6356L1.66387 4.00012L4.02929 6.36464C4.11319 6.44854 4.16032 6.56233 4.16032 6.68098C4.16032 6.79963 4.11319 6.91342 4.02929 6.99732C3.94539 7.08122 3.8316 7.12836 3.71295 7.12836C3.59429 7.12836 3.4805 7.08122 3.3966 6.99732L0.715739 4.31646Z" fill="#07484A"/>
</svg>
