<svg width="11" height="8" viewBox="0 0 11 8" fill="none" xmlns="http://www.w3.org/2000/svg">
<path fill-rule="evenodd" clip-rule="evenodd" d="M9.52051 4.00003C9.52051 4.11853 9.47343 4.23218 9.38964 4.31598C9.30585 4.39977 9.1922 4.44684 9.0737 4.44684L1.03111 4.44684C0.912606 4.44684 0.798958 4.39977 0.715164 4.31598C0.631372 4.23218 0.584297 4.11854 0.584297 4.00003C0.584297 3.88153 0.631372 3.76788 0.715164 3.68409C0.798958 3.6003 0.912606 3.55322 1.03111 3.55322L9.0737 3.55322C9.1922 3.55322 9.30585 3.6003 9.38964 3.68409C9.47343 3.76788 9.52051 3.88153 9.52051 4.00003Z" fill="#07484A"/>
<path fill-rule="evenodd" clip-rule="evenodd" d="M10.2838 3.68378C10.3254 3.72529 10.3584 3.77459 10.3809 3.82888C10.4034 3.88316 10.415 3.94135 10.415 4.00013C10.415 4.0589 10.4034 4.11709 10.3809 4.17137C10.3584 4.22566 10.3254 4.27496 10.2838 4.31647L7.60291 6.99733C7.51901 7.08123 7.40522 7.12836 7.28657 7.12836C7.16792 7.12836 7.05412 7.08123 6.97023 6.99733C6.88633 6.91343 6.83919 6.79964 6.83919 6.68099C6.83919 6.56234 6.88633 6.44855 6.97023 6.36465L9.33564 4.00013L6.97022 1.6356C6.88633 1.55171 6.83919 1.43791 6.83919 1.31926C6.83919 1.20061 6.88633 1.08682 6.97022 1.00292C7.05412 0.919022 7.16792 0.871888 7.28657 0.871888C7.40522 0.871888 7.51901 0.919022 7.60291 1.00292L10.2838 3.68378Z" fill="#07484A"/>
</svg>
